<?xml version="1.0" standalone="no"?>
<!DOCTYPE svg PUBLIC "-//W3C//DTD SVG 20010904//EN"
 "http://www.w3.org/TR/2001/REC-SVG-20010904/DTD/svg10.dtd">
<svg version="1.0" xmlns="http://www.w3.org/2000/svg"
 width="98.000000pt" height="98.000000pt" viewBox="0 0 98.000000 98.000000"
 preserveAspectRatio="xMidYMid meet">
<metadata>
Created by potrace 1.14, written by Peter Selinger 2001-2017
</metadata>
<g transform="translate(0.000000,98.000000) scale(0.100000,-0.100000)"
fill="#000000" stroke="none">
<path d="M430 897 c-36 -23 -104 -66 -150 -96 -47 -29 -100 -63 -117 -75 l-33
-21 0 -230 0 -230 28 -16 c56 -34 229 -142 279 -175 28 -19 56 -34 62 -34 6 0
88 49 183 108 l173 109 3 240 2 239 -62 38 c-35 20 -115 71 -178 111 -63 41
-117 75 -120 75 -3 0 -34 -19 -70 -43z m142 -80 c201 -126 223 -142 226 -167
l3 -25 -172 3 c-103 2 -176 -1 -182 -7 -5 -5 -39 -7 -78 -4 -80 7 -138 -13
-160 -53 -11 -21 -10 -28 8 -52 11 -15 50 -45 86 -67 90 -55 97 -63 73 -81
-25 -18 -59 -18 -96 1 -25 13 -32 13 -57 0 -15 -8 -31 -15 -35 -15 -5 0 -8 73
-8 163 l0 163 148 92 c81 50 154 92 162 92 8 0 45 -19 82 -43z m228 -392 l0
-145 -57 -36 c-83 -52 -121 -76 -185 -117 -32 -20 -63 -37 -69 -37 -11 0 -260
152 -291 179 -16 13 -26 61 -13 61 3 0 23 -9 45 -20 73 -37 198 -23 243 28 35
39 20 72 -58 124 -121 80 -120 79 -101 90 11 6 29 5 51 -2 24 -8 40 -8 54 -1
11 6 49 11 85 11 l66 0 0 -134 c0 -143 1 -146 54 -146 41 0 46 17 46 152 l0
127 63 4 c34 2 63 4 65 5 1 1 2 -63 2 -143z"/>
</g>
</svg>
